<mxfile host="app.diagrams.net" agent="Mozilla/5.0 (Windows NT 10.0; Win64; x64) AppleWebKit/537.36 (KHTML, like Gecko) Chrome/132.0.0.0 Safari/537.36 OPR/117.0.0.0" version="26.1.3">
  <diagram name="Page-1" id="NUv8zOGFEafr4AI7JtTO">
    <mxGraphModel dx="4874" dy="2340" grid="1" gridSize="10" guides="1" tooltips="1" connect="1" arrows="1" fold="1" page="1" pageScale="1" pageWidth="850" pageHeight="1100" math="0" shadow="0">
      <root>
        <mxCell id="0" />
        <mxCell id="1" parent="0" />
        <mxCell id="4jkdXABpjhATwR_0k8hN-1" value="ending" style="whiteSpace=wrap;strokeWidth=2;verticalAlign=top;" vertex="1" parent="1">
          <mxGeometry x="320" y="5080" width="349" height="979" as="geometry" />
        </mxCell>
        <mxCell id="4jkdXABpjhATwR_0k8hN-2" value="Redo is false?" style="rhombus;strokeWidth=2;whiteSpace=wrap;" vertex="1" parent="4jkdXABpjhATwR_0k8hN-1">
          <mxGeometry x="130" y="46" width="150" height="150" as="geometry" />
        </mxCell>
        <mxCell id="4jkdXABpjhATwR_0k8hN-3" value="Display final score" style="whiteSpace=wrap;strokeWidth=2;" vertex="1" parent="4jkdXABpjhATwR_0k8hN-1">
          <mxGeometry x="110" y="270" width="191" height="54" as="geometry" />
        </mxCell>
        <mxCell id="4jkdXABpjhATwR_0k8hN-4" value="Get play again input" style="whiteSpace=wrap;strokeWidth=2;" vertex="1" parent="4jkdXABpjhATwR_0k8hN-1">
          <mxGeometry x="102" y="399" width="206" height="54" as="geometry" />
        </mxCell>
        <mxCell id="4jkdXABpjhATwR_0k8hN-5" value="Input is yes?" style="rhombus;strokeWidth=2;whiteSpace=wrap;" vertex="1" parent="4jkdXABpjhATwR_0k8hN-1">
          <mxGeometry x="135" y="528" width="141" height="141" as="geometry" />
        </mxCell>
        <mxCell id="4jkdXABpjhATwR_0k8hN-6" value="Set redo to true" style="whiteSpace=wrap;strokeWidth=2;" vertex="1" parent="4jkdXABpjhATwR_0k8hN-1">
          <mxGeometry x="51" y="766" width="175" height="54" as="geometry" />
        </mxCell>
        <mxCell id="4jkdXABpjhATwR_0k8hN-7" value="Return" style="whiteSpace=wrap;strokeWidth=2;" vertex="1" parent="4jkdXABpjhATwR_0k8hN-1">
          <mxGeometry x="151" y="895" width="107" height="54" as="geometry" />
        </mxCell>
        <mxCell id="4jkdXABpjhATwR_0k8hN-8" value="" style="curved=1;startArrow=none;endArrow=block;exitX=0.5;exitY=0.99;entryX=0.5;entryY=0;rounded=0;" edge="1" parent="4jkdXABpjhATwR_0k8hN-1" source="4jkdXABpjhATwR_0k8hN-2" target="4jkdXABpjhATwR_0k8hN-3">
          <mxGeometry relative="1" as="geometry">
            <Array as="points" />
          </mxGeometry>
        </mxCell>
        <mxCell id="4jkdXABpjhATwR_0k8hN-9" value="" style="curved=1;startArrow=none;endArrow=block;exitX=0.5;exitY=1;entryX=0.5;entryY=0;rounded=0;" edge="1" parent="4jkdXABpjhATwR_0k8hN-1" source="4jkdXABpjhATwR_0k8hN-3" target="4jkdXABpjhATwR_0k8hN-4">
          <mxGeometry relative="1" as="geometry">
            <Array as="points" />
          </mxGeometry>
        </mxCell>
        <mxCell id="4jkdXABpjhATwR_0k8hN-10" value="" style="curved=1;startArrow=none;endArrow=block;exitX=0.5;exitY=1;entryX=0.5;entryY=0;rounded=0;" edge="1" parent="4jkdXABpjhATwR_0k8hN-1" source="4jkdXABpjhATwR_0k8hN-4" target="4jkdXABpjhATwR_0k8hN-5">
          <mxGeometry relative="1" as="geometry">
            <Array as="points" />
          </mxGeometry>
        </mxCell>
        <mxCell id="4jkdXABpjhATwR_0k8hN-11" value="Yes" style="curved=1;startArrow=none;endArrow=block;exitX=0.22;exitY=1;entryX=0.5;entryY=0.01;rounded=0;" edge="1" parent="4jkdXABpjhATwR_0k8hN-1" source="4jkdXABpjhATwR_0k8hN-5" target="4jkdXABpjhATwR_0k8hN-6">
          <mxGeometry relative="1" as="geometry">
            <Array as="points">
              <mxPoint x="138" y="718" />
            </Array>
          </mxGeometry>
        </mxCell>
        <mxCell id="4jkdXABpjhATwR_0k8hN-12" value="" style="curved=1;startArrow=none;endArrow=block;exitX=0.5;exitY=1.01;entryX=0.24;entryY=0.01;rounded=0;" edge="1" parent="4jkdXABpjhATwR_0k8hN-1" source="4jkdXABpjhATwR_0k8hN-6" target="4jkdXABpjhATwR_0k8hN-7">
          <mxGeometry relative="1" as="geometry">
            <Array as="points">
              <mxPoint x="138" y="858" />
            </Array>
          </mxGeometry>
        </mxCell>
        <mxCell id="4jkdXABpjhATwR_0k8hN-13" value="No" style="curved=1;startArrow=none;endArrow=block;exitX=0.78;exitY=1;entryX=0.77;entryY=0.01;rounded=0;" edge="1" parent="4jkdXABpjhATwR_0k8hN-1" source="4jkdXABpjhATwR_0k8hN-5" target="4jkdXABpjhATwR_0k8hN-7">
          <mxGeometry relative="1" as="geometry">
            <Array as="points">
              <mxPoint x="272" y="718" />
              <mxPoint x="272" y="858" />
            </Array>
          </mxGeometry>
        </mxCell>
        <mxCell id="4jkdXABpjhATwR_0k8hN-14" value="show_questions" style="whiteSpace=wrap;strokeWidth=2;verticalAlign=top;" vertex="1" parent="1">
          <mxGeometry x="-500" y="2360" width="1024" height="2509" as="geometry" />
        </mxCell>
        <mxCell id="4jkdXABpjhATwR_0k8hN-15" value="Topic exists?" style="rhombus;strokeWidth=2;whiteSpace=wrap;" vertex="1" parent="4jkdXABpjhATwR_0k8hN-14">
          <mxGeometry x="746" y="46" width="143" height="143" as="geometry" />
        </mxCell>
        <mxCell id="4jkdXABpjhATwR_0k8hN-16" value="Display topic header" style="whiteSpace=wrap;strokeWidth=2;" vertex="1" parent="4jkdXABpjhATwR_0k8hN-14">
          <mxGeometry x="465" y="285" width="206" height="54" as="geometry" />
        </mxCell>
        <mxCell id="4jkdXABpjhATwR_0k8hN-17" value="Pause" style="whiteSpace=wrap;strokeWidth=2;" vertex="1" parent="4jkdXABpjhATwR_0k8hN-14">
          <mxGeometry x="518" y="414" width="101" height="54" as="geometry" />
        </mxCell>
        <mxCell id="4jkdXABpjhATwR_0k8hN-18" value="Get questions" style="whiteSpace=wrap;strokeWidth=2;" vertex="1" parent="4jkdXABpjhATwR_0k8hN-14">
          <mxGeometry x="489" y="543" width="158" height="54" as="geometry" />
        </mxCell>
        <mxCell id="4jkdXABpjhATwR_0k8hN-19" value="Shuffle questions" style="whiteSpace=wrap;strokeWidth=2;" vertex="1" parent="4jkdXABpjhATwR_0k8hN-14">
          <mxGeometry x="477" y="672" width="183" height="54" as="geometry" />
        </mxCell>
        <mxCell id="4jkdXABpjhATwR_0k8hN-20" value="Loop through questions" style="whiteSpace=wrap;strokeWidth=2;" vertex="1" parent="4jkdXABpjhATwR_0k8hN-14">
          <mxGeometry x="455" y="801" width="227" height="54" as="geometry" />
        </mxCell>
        <mxCell id="4jkdXABpjhATwR_0k8hN-21" value="Display question" style="whiteSpace=wrap;strokeWidth=2;" vertex="1" parent="4jkdXABpjhATwR_0k8hN-14">
          <mxGeometry x="304" y="953" width="177" height="54" as="geometry" />
        </mxCell>
        <mxCell id="4jkdXABpjhATwR_0k8hN-22" value="Pause" style="whiteSpace=wrap;strokeWidth=2;" vertex="1" parent="4jkdXABpjhATwR_0k8hN-14">
          <mxGeometry x="342" y="1082" width="101" height="54" as="geometry" />
        </mxCell>
        <mxCell id="4jkdXABpjhATwR_0k8hN-23" value="Get options/answer" style="whiteSpace=wrap;strokeWidth=2;" vertex="1" parent="4jkdXABpjhATwR_0k8hN-14">
          <mxGeometry x="291" y="1211" width="202" height="54" as="geometry" />
        </mxCell>
        <mxCell id="4jkdXABpjhATwR_0k8hN-24" value="Add answer to options" style="whiteSpace=wrap;strokeWidth=2;" vertex="1" parent="4jkdXABpjhATwR_0k8hN-14">
          <mxGeometry x="282" y="1340" width="219" height="54" as="geometry" />
        </mxCell>
        <mxCell id="4jkdXABpjhATwR_0k8hN-25" value="Shuffle options" style="whiteSpace=wrap;strokeWidth=2;" vertex="1" parent="4jkdXABpjhATwR_0k8hN-14">
          <mxGeometry x="308" y="1469" width="167" height="54" as="geometry" />
        </mxCell>
        <mxCell id="4jkdXABpjhATwR_0k8hN-26" value="Display options" style="whiteSpace=wrap;strokeWidth=2;" vertex="1" parent="4jkdXABpjhATwR_0k8hN-14">
          <mxGeometry x="308" y="1598" width="168" height="54" as="geometry" />
        </mxCell>
        <mxCell id="4jkdXABpjhATwR_0k8hN-27" value="Get answer input" style="whiteSpace=wrap;strokeWidth=2;" vertex="1" parent="4jkdXABpjhATwR_0k8hN-14">
          <mxGeometry x="300" y="1727" width="183" height="54" as="geometry" />
        </mxCell>
        <mxCell id="4jkdXABpjhATwR_0k8hN-28" value="Check answer valid" style="whiteSpace=wrap;strokeWidth=2;" vertex="1" parent="4jkdXABpjhATwR_0k8hN-14">
          <mxGeometry x="293" y="1856" width="198" height="54" as="geometry" />
        </mxCell>
        <mxCell id="4jkdXABpjhATwR_0k8hN-29" value="Answer correct?" style="rhombus;strokeWidth=2;whiteSpace=wrap;" vertex="1" parent="4jkdXABpjhATwR_0k8hN-14">
          <mxGeometry x="244" y="2007" width="168" height="168" as="geometry" />
        </mxCell>
        <mxCell id="4jkdXABpjhATwR_0k8hN-30" value="Display correct msg/update score" style="whiteSpace=wrap;strokeWidth=2;" vertex="1" parent="4jkdXABpjhATwR_0k8hN-14">
          <mxGeometry x="43" y="2273" width="260" height="78" as="geometry" />
        </mxCell>
        <mxCell id="4jkdXABpjhATwR_0k8hN-31" value="Break loop" style="whiteSpace=wrap;strokeWidth=2;" vertex="1" parent="4jkdXABpjhATwR_0k8hN-14">
          <mxGeometry x="552" y="2426" width="136" height="54" as="geometry" />
        </mxCell>
        <mxCell id="4jkdXABpjhATwR_0k8hN-32" value="Display wrong msg/update score" style="whiteSpace=wrap;strokeWidth=2;" vertex="1" parent="4jkdXABpjhATwR_0k8hN-14">
          <mxGeometry x="426" y="2273" width="260" height="78" as="geometry" />
        </mxCell>
        <mxCell id="4jkdXABpjhATwR_0k8hN-33" value="Display invalid msg/get input" style="whiteSpace=wrap;strokeWidth=2;" vertex="1" parent="4jkdXABpjhATwR_0k8hN-14">
          <mxGeometry x="462" y="2052" width="260" height="78" as="geometry" />
        </mxCell>
        <mxCell id="4jkdXABpjhATwR_0k8hN-34" value="Reset counter" style="whiteSpace=wrap;strokeWidth=2;" vertex="1" parent="4jkdXABpjhATwR_0k8hN-14">
          <mxGeometry x="530" y="953" width="159" height="54" as="geometry" />
        </mxCell>
        <mxCell id="4jkdXABpjhATwR_0k8hN-35" value="Return" style="whiteSpace=wrap;strokeWidth=2;" vertex="1" parent="4jkdXABpjhATwR_0k8hN-14">
          <mxGeometry x="763" y="1082" width="107" height="54" as="geometry" />
        </mxCell>
        <mxCell id="4jkdXABpjhATwR_0k8hN-36" value="Display no questions msg" style="whiteSpace=wrap;strokeWidth=2;" vertex="1" parent="4jkdXABpjhATwR_0k8hN-14">
          <mxGeometry x="740" y="953" width="238" height="54" as="geometry" />
        </mxCell>
        <mxCell id="4jkdXABpjhATwR_0k8hN-37" value="Yes" style="curved=1;startArrow=none;endArrow=block;exitX=0;exitY=0.74;entryX=0.5;entryY=0.01;rounded=0;" edge="1" parent="4jkdXABpjhATwR_0k8hN-14" source="4jkdXABpjhATwR_0k8hN-15" target="4jkdXABpjhATwR_0k8hN-16">
          <mxGeometry relative="1" as="geometry">
            <Array as="points">
              <mxPoint x="568" y="237" />
            </Array>
          </mxGeometry>
        </mxCell>
        <mxCell id="4jkdXABpjhATwR_0k8hN-38" value="" style="curved=1;startArrow=none;endArrow=block;exitX=0.5;exitY=1.01;entryX=0.5;entryY=0.01;rounded=0;" edge="1" parent="4jkdXABpjhATwR_0k8hN-14" source="4jkdXABpjhATwR_0k8hN-16" target="4jkdXABpjhATwR_0k8hN-17">
          <mxGeometry relative="1" as="geometry">
            <Array as="points" />
          </mxGeometry>
        </mxCell>
        <mxCell id="4jkdXABpjhATwR_0k8hN-39" value="" style="curved=1;startArrow=none;endArrow=block;exitX=0.5;exitY=1.01;entryX=0.5;entryY=0.01;rounded=0;" edge="1" parent="4jkdXABpjhATwR_0k8hN-14" source="4jkdXABpjhATwR_0k8hN-17" target="4jkdXABpjhATwR_0k8hN-18">
          <mxGeometry relative="1" as="geometry">
            <Array as="points" />
          </mxGeometry>
        </mxCell>
        <mxCell id="4jkdXABpjhATwR_0k8hN-40" value="" style="curved=1;startArrow=none;endArrow=block;exitX=0.5;exitY=1.01;entryX=0.5;entryY=0.01;rounded=0;" edge="1" parent="4jkdXABpjhATwR_0k8hN-14" source="4jkdXABpjhATwR_0k8hN-18" target="4jkdXABpjhATwR_0k8hN-19">
          <mxGeometry relative="1" as="geometry">
            <Array as="points" />
          </mxGeometry>
        </mxCell>
        <mxCell id="4jkdXABpjhATwR_0k8hN-41" value="" style="curved=1;startArrow=none;endArrow=block;exitX=0.5;exitY=1.01;entryX=0.5;entryY=0.01;rounded=0;" edge="1" parent="4jkdXABpjhATwR_0k8hN-14" source="4jkdXABpjhATwR_0k8hN-19" target="4jkdXABpjhATwR_0k8hN-20">
          <mxGeometry relative="1" as="geometry">
            <Array as="points" />
          </mxGeometry>
        </mxCell>
        <mxCell id="4jkdXABpjhATwR_0k8hN-42" value="" style="curved=1;startArrow=none;endArrow=block;exitX=0.22;exitY=1.01;entryX=0.5;entryY=0;rounded=0;" edge="1" parent="4jkdXABpjhATwR_0k8hN-14" source="4jkdXABpjhATwR_0k8hN-20" target="4jkdXABpjhATwR_0k8hN-21">
          <mxGeometry relative="1" as="geometry">
            <Array as="points">
              <mxPoint x="392" y="904" />
            </Array>
          </mxGeometry>
        </mxCell>
        <mxCell id="4jkdXABpjhATwR_0k8hN-43" value="" style="curved=1;startArrow=none;endArrow=block;exitX=0.5;exitY=1;entryX=0.5;entryY=0;rounded=0;" edge="1" parent="4jkdXABpjhATwR_0k8hN-14" source="4jkdXABpjhATwR_0k8hN-21" target="4jkdXABpjhATwR_0k8hN-22">
          <mxGeometry relative="1" as="geometry">
            <Array as="points" />
          </mxGeometry>
        </mxCell>
        <mxCell id="4jkdXABpjhATwR_0k8hN-44" value="" style="curved=1;startArrow=none;endArrow=block;exitX=0.5;exitY=1;entryX=0.5;entryY=0;rounded=0;" edge="1" parent="4jkdXABpjhATwR_0k8hN-14" source="4jkdXABpjhATwR_0k8hN-22" target="4jkdXABpjhATwR_0k8hN-23">
          <mxGeometry relative="1" as="geometry">
            <Array as="points" />
          </mxGeometry>
        </mxCell>
        <mxCell id="4jkdXABpjhATwR_0k8hN-45" value="" style="curved=1;startArrow=none;endArrow=block;exitX=0.5;exitY=1;entryX=0.5;entryY=0;rounded=0;" edge="1" parent="4jkdXABpjhATwR_0k8hN-14" source="4jkdXABpjhATwR_0k8hN-23" target="4jkdXABpjhATwR_0k8hN-24">
          <mxGeometry relative="1" as="geometry">
            <Array as="points" />
          </mxGeometry>
        </mxCell>
        <mxCell id="4jkdXABpjhATwR_0k8hN-46" value="" style="curved=1;startArrow=none;endArrow=block;exitX=0.5;exitY=1;entryX=0.5;entryY=0;rounded=0;" edge="1" parent="4jkdXABpjhATwR_0k8hN-14" source="4jkdXABpjhATwR_0k8hN-24" target="4jkdXABpjhATwR_0k8hN-25">
          <mxGeometry relative="1" as="geometry">
            <Array as="points" />
          </mxGeometry>
        </mxCell>
        <mxCell id="4jkdXABpjhATwR_0k8hN-47" value="" style="curved=1;startArrow=none;endArrow=block;exitX=0.5;exitY=1;entryX=0.5;entryY=0;rounded=0;" edge="1" parent="4jkdXABpjhATwR_0k8hN-14" source="4jkdXABpjhATwR_0k8hN-25" target="4jkdXABpjhATwR_0k8hN-26">
          <mxGeometry relative="1" as="geometry">
            <Array as="points" />
          </mxGeometry>
        </mxCell>
        <mxCell id="4jkdXABpjhATwR_0k8hN-48" value="" style="curved=1;startArrow=none;endArrow=block;exitX=0.5;exitY=1;entryX=0.5;entryY=0;rounded=0;" edge="1" parent="4jkdXABpjhATwR_0k8hN-14" source="4jkdXABpjhATwR_0k8hN-26" target="4jkdXABpjhATwR_0k8hN-27">
          <mxGeometry relative="1" as="geometry">
            <Array as="points" />
          </mxGeometry>
        </mxCell>
        <mxCell id="4jkdXABpjhATwR_0k8hN-49" value="" style="curved=1;startArrow=none;endArrow=block;exitX=0.5;exitY=1;entryX=0.5;entryY=0;rounded=0;" edge="1" parent="4jkdXABpjhATwR_0k8hN-14" source="4jkdXABpjhATwR_0k8hN-27" target="4jkdXABpjhATwR_0k8hN-28">
          <mxGeometry relative="1" as="geometry">
            <Array as="points" />
          </mxGeometry>
        </mxCell>
        <mxCell id="4jkdXABpjhATwR_0k8hN-50" value="Yes" style="curved=1;startArrow=none;endArrow=block;exitX=0.39;exitY=1;entryX=0.5;entryY=0;rounded=0;" edge="1" parent="4jkdXABpjhATwR_0k8hN-14" source="4jkdXABpjhATwR_0k8hN-28" target="4jkdXABpjhATwR_0k8hN-29">
          <mxGeometry relative="1" as="geometry">
            <Array as="points">
              <mxPoint x="328" y="1959" />
            </Array>
          </mxGeometry>
        </mxCell>
        <mxCell id="4jkdXABpjhATwR_0k8hN-51" value="Yes" style="curved=1;startArrow=none;endArrow=block;exitX=0;exitY=0.93;entryX=0.5;entryY=0;rounded=0;" edge="1" parent="4jkdXABpjhATwR_0k8hN-14" source="4jkdXABpjhATwR_0k8hN-29" target="4jkdXABpjhATwR_0k8hN-30">
          <mxGeometry relative="1" as="geometry">
            <Array as="points">
              <mxPoint x="173" y="2224" />
            </Array>
          </mxGeometry>
        </mxCell>
        <mxCell id="4jkdXABpjhATwR_0k8hN-52" value="" style="curved=1;startArrow=none;endArrow=block;exitX=0.5;exitY=1;entryX=0;entryY=0.32;rounded=0;" edge="1" parent="4jkdXABpjhATwR_0k8hN-14" source="4jkdXABpjhATwR_0k8hN-30" target="4jkdXABpjhATwR_0k8hN-31">
          <mxGeometry relative="1" as="geometry">
            <Array as="points">
              <mxPoint x="173" y="2388" />
            </Array>
          </mxGeometry>
        </mxCell>
        <mxCell id="4jkdXABpjhATwR_0k8hN-53" value="No" style="curved=1;startArrow=none;endArrow=block;exitX=1;exitY=0.79;entryX=0.5;entryY=0;rounded=0;" edge="1" parent="4jkdXABpjhATwR_0k8hN-14" source="4jkdXABpjhATwR_0k8hN-29" target="4jkdXABpjhATwR_0k8hN-32">
          <mxGeometry relative="1" as="geometry">
            <Array as="points">
              <mxPoint x="556" y="2224" />
            </Array>
          </mxGeometry>
        </mxCell>
        <mxCell id="4jkdXABpjhATwR_0k8hN-54" value="" style="curved=1;startArrow=none;endArrow=block;exitX=0.5;exitY=1;entryX=0.3;entryY=0;rounded=0;" edge="1" parent="4jkdXABpjhATwR_0k8hN-14" source="4jkdXABpjhATwR_0k8hN-32" target="4jkdXABpjhATwR_0k8hN-31">
          <mxGeometry relative="1" as="geometry">
            <Array as="points">
              <mxPoint x="556" y="2388" />
            </Array>
          </mxGeometry>
        </mxCell>
        <mxCell id="4jkdXABpjhATwR_0k8hN-55" value="No" style="curved=1;startArrow=none;endArrow=block;exitX=0.66;exitY=1;entryX=0.38;entryY=0;rounded=0;" edge="1" parent="4jkdXABpjhATwR_0k8hN-14" source="4jkdXABpjhATwR_0k8hN-28" target="4jkdXABpjhATwR_0k8hN-33">
          <mxGeometry relative="1" as="geometry">
            <Array as="points">
              <mxPoint x="483" y="1959" />
            </Array>
          </mxGeometry>
        </mxCell>
        <mxCell id="4jkdXABpjhATwR_0k8hN-56" value="" style="curved=1;startArrow=none;endArrow=block;exitX=0.69;exitY=0;entryX=1;entryY=0.87;rounded=0;" edge="1" parent="4jkdXABpjhATwR_0k8hN-14" source="4jkdXABpjhATwR_0k8hN-33" target="4jkdXABpjhATwR_0k8hN-28">
          <mxGeometry relative="1" as="geometry">
            <Array as="points">
              <mxPoint x="760" y="1959" />
            </Array>
          </mxGeometry>
        </mxCell>
        <mxCell id="4jkdXABpjhATwR_0k8hN-57" value="" style="curved=1;startArrow=none;endArrow=block;exitX=1;exitY=0.29;entryX=1;entryY=0.87;rounded=0;" edge="1" parent="4jkdXABpjhATwR_0k8hN-14" source="4jkdXABpjhATwR_0k8hN-31" target="4jkdXABpjhATwR_0k8hN-20">
          <mxGeometry relative="1" as="geometry">
            <Array as="points">
              <mxPoint x="1012" y="2388" />
              <mxPoint x="1012" y="904" />
            </Array>
          </mxGeometry>
        </mxCell>
        <mxCell id="4jkdXABpjhATwR_0k8hN-58" value="end" style="curved=1;startArrow=none;endArrow=block;exitX=0.57;exitY=1.01;entryX=0.5;entryY=0;rounded=0;" edge="1" parent="4jkdXABpjhATwR_0k8hN-14" source="4jkdXABpjhATwR_0k8hN-20" target="4jkdXABpjhATwR_0k8hN-34">
          <mxGeometry relative="1" as="geometry">
            <Array as="points">
              <mxPoint x="610" y="904" />
            </Array>
          </mxGeometry>
        </mxCell>
        <mxCell id="4jkdXABpjhATwR_0k8hN-59" value="" style="curved=1;startArrow=none;endArrow=block;exitX=0.5;exitY=1;entryX=0;entryY=0.19;rounded=0;" edge="1" parent="4jkdXABpjhATwR_0k8hN-14" source="4jkdXABpjhATwR_0k8hN-34" target="4jkdXABpjhATwR_0k8hN-35">
          <mxGeometry relative="1" as="geometry">
            <Array as="points">
              <mxPoint x="610" y="1044" />
            </Array>
          </mxGeometry>
        </mxCell>
        <mxCell id="4jkdXABpjhATwR_0k8hN-60" value="No" style="curved=1;startArrow=none;endArrow=block;exitX=0.67;exitY=0.99;entryX=0.5;entryY=0;rounded=0;" edge="1" parent="4jkdXABpjhATwR_0k8hN-14" source="4jkdXABpjhATwR_0k8hN-15" target="4jkdXABpjhATwR_0k8hN-36">
          <mxGeometry relative="1" as="geometry">
            <Array as="points">
              <mxPoint x="859" y="237" />
            </Array>
          </mxGeometry>
        </mxCell>
        <mxCell id="4jkdXABpjhATwR_0k8hN-61" value="" style="curved=1;startArrow=none;endArrow=block;exitX=0.5;exitY=1;entryX=0.67;entryY=0;rounded=0;" edge="1" parent="4jkdXABpjhATwR_0k8hN-14" source="4jkdXABpjhATwR_0k8hN-36" target="4jkdXABpjhATwR_0k8hN-35">
          <mxGeometry relative="1" as="geometry">
            <Array as="points">
              <mxPoint x="859" y="1044" />
            </Array>
          </mxGeometry>
        </mxCell>
        <mxCell id="4jkdXABpjhATwR_0k8hN-62" value="filter_topic" style="whiteSpace=wrap;strokeWidth=2;verticalAlign=top;" vertex="1" parent="1">
          <mxGeometry x="-610" y="730" width="703" height="1513" as="geometry" />
        </mxCell>
        <mxCell id="4jkdXABpjhATwR_0k8hN-63" value="Display topic prompt" style="whiteSpace=wrap;strokeWidth=2;" vertex="1" parent="4jkdXABpjhATwR_0k8hN-62">
          <mxGeometry x="421" y="46" width="209" height="54" as="geometry" />
        </mxCell>
        <mxCell id="4jkdXABpjhATwR_0k8hN-64" value="List topics" style="whiteSpace=wrap;strokeWidth=2;" vertex="1" parent="4jkdXABpjhATwR_0k8hN-62">
          <mxGeometry x="459" y="175" width="133" height="54" as="geometry" />
        </mxCell>
        <mxCell id="4jkdXABpjhATwR_0k8hN-65" value="Display topics" style="whiteSpace=wrap;strokeWidth=2;" vertex="1" parent="4jkdXABpjhATwR_0k8hN-62">
          <mxGeometry x="446" y="304" width="158" height="54" as="geometry" />
        </mxCell>
        <mxCell id="4jkdXABpjhATwR_0k8hN-66" value="Get topic input" style="whiteSpace=wrap;strokeWidth=2;" vertex="1" parent="4jkdXABpjhATwR_0k8hN-62">
          <mxGeometry x="441" y="433" width="169" height="54" as="geometry" />
        </mxCell>
        <mxCell id="4jkdXABpjhATwR_0k8hN-67" value="Input is digit?" style="rhombus;strokeWidth=2;whiteSpace=wrap;" vertex="1" parent="4jkdXABpjhATwR_0k8hN-62">
          <mxGeometry x="450" y="562" width="150" height="150" as="geometry" />
        </mxCell>
        <mxCell id="4jkdXABpjhATwR_0k8hN-68" value="Convert to int" style="whiteSpace=wrap;strokeWidth=2;" vertex="1" parent="4jkdXABpjhATwR_0k8hN-62">
          <mxGeometry x="150" y="809" width="160" height="54" as="geometry" />
        </mxCell>
        <mxCell id="4jkdXABpjhATwR_0k8hN-69" value="Input valid?" style="rhombus;strokeWidth=2;whiteSpace=wrap;" vertex="1" parent="4jkdXABpjhATwR_0k8hN-62">
          <mxGeometry x="162" y="938" width="136" height="136" as="geometry" />
        </mxCell>
        <mxCell id="4jkdXABpjhATwR_0k8hN-70" value="Select topic" style="whiteSpace=wrap;strokeWidth=2;" vertex="1" parent="4jkdXABpjhATwR_0k8hN-62">
          <mxGeometry x="48" y="1172" width="145" height="54" as="geometry" />
        </mxCell>
        <mxCell id="4jkdXABpjhATwR_0k8hN-71" value="Pause" style="whiteSpace=wrap;strokeWidth=2;" vertex="1" parent="4jkdXABpjhATwR_0k8hN-62">
          <mxGeometry x="70" y="1301" width="101" height="54" as="geometry" />
        </mxCell>
        <mxCell id="4jkdXABpjhATwR_0k8hN-72" value="Return topic" style="whiteSpace=wrap;strokeWidth=2;" vertex="1" parent="4jkdXABpjhATwR_0k8hN-62">
          <mxGeometry x="46" y="1430" width="149" height="54" as="geometry" />
        </mxCell>
        <mxCell id="4jkdXABpjhATwR_0k8hN-73" value="Display invalid msg" style="whiteSpace=wrap;strokeWidth=2;" vertex="1" parent="4jkdXABpjhATwR_0k8hN-62">
          <mxGeometry x="257" y="1172" width="196" height="54" as="geometry" />
        </mxCell>
        <mxCell id="4jkdXABpjhATwR_0k8hN-74" value="Get input" style="whiteSpace=wrap;strokeWidth=2;" vertex="1" parent="4jkdXABpjhATwR_0k8hN-62">
          <mxGeometry x="513" y="1301" width="128" height="54" as="geometry" />
        </mxCell>
        <mxCell id="4jkdXABpjhATwR_0k8hN-75" value="Display invalid msg" style="whiteSpace=wrap;strokeWidth=2;" vertex="1" parent="4jkdXABpjhATwR_0k8hN-62">
          <mxGeometry x="361" y="809" width="196" height="54" as="geometry" />
        </mxCell>
        <mxCell id="4jkdXABpjhATwR_0k8hN-76" value="Get input" style="whiteSpace=wrap;strokeWidth=2;" vertex="1" parent="4jkdXABpjhATwR_0k8hN-62">
          <mxGeometry x="461" y="979" width="128" height="54" as="geometry" />
        </mxCell>
        <mxCell id="4jkdXABpjhATwR_0k8hN-77" value="" style="curved=1;startArrow=none;endArrow=block;exitX=0.5;exitY=0.99;entryX=0.5;entryY=-0.01;rounded=0;" edge="1" parent="4jkdXABpjhATwR_0k8hN-62" source="4jkdXABpjhATwR_0k8hN-63" target="4jkdXABpjhATwR_0k8hN-64">
          <mxGeometry relative="1" as="geometry">
            <Array as="points" />
          </mxGeometry>
        </mxCell>
        <mxCell id="4jkdXABpjhATwR_0k8hN-78" value="" style="curved=1;startArrow=none;endArrow=block;exitX=0.5;exitY=0.99;entryX=0.5;entryY=-0.01;rounded=0;" edge="1" parent="4jkdXABpjhATwR_0k8hN-62" source="4jkdXABpjhATwR_0k8hN-64" target="4jkdXABpjhATwR_0k8hN-65">
          <mxGeometry relative="1" as="geometry">
            <Array as="points" />
          </mxGeometry>
        </mxCell>
        <mxCell id="4jkdXABpjhATwR_0k8hN-79" value="" style="curved=1;startArrow=none;endArrow=block;exitX=0.5;exitY=0.99;entryX=0.5;entryY=-0.01;rounded=0;" edge="1" parent="4jkdXABpjhATwR_0k8hN-62" source="4jkdXABpjhATwR_0k8hN-65" target="4jkdXABpjhATwR_0k8hN-66">
          <mxGeometry relative="1" as="geometry">
            <Array as="points" />
          </mxGeometry>
        </mxCell>
        <mxCell id="4jkdXABpjhATwR_0k8hN-80" value="" style="curved=1;startArrow=none;endArrow=block;exitX=0.5;exitY=0.99;entryX=0.5;entryY=0;rounded=0;" edge="1" parent="4jkdXABpjhATwR_0k8hN-62" source="4jkdXABpjhATwR_0k8hN-66" target="4jkdXABpjhATwR_0k8hN-67">
          <mxGeometry relative="1" as="geometry">
            <Array as="points" />
          </mxGeometry>
        </mxCell>
        <mxCell id="4jkdXABpjhATwR_0k8hN-81" value="Yes" style="curved=1;startArrow=none;endArrow=block;exitX=0;exitY=0.71;entryX=0.5;entryY=0;rounded=0;" edge="1" parent="4jkdXABpjhATwR_0k8hN-62" source="4jkdXABpjhATwR_0k8hN-67" target="4jkdXABpjhATwR_0k8hN-68">
          <mxGeometry relative="1" as="geometry">
            <Array as="points">
              <mxPoint x="231" y="760" />
            </Array>
          </mxGeometry>
        </mxCell>
        <mxCell id="4jkdXABpjhATwR_0k8hN-82" value="" style="curved=1;startArrow=none;endArrow=block;exitX=0.5;exitY=1;entryX=0.5;entryY=0;rounded=0;" edge="1" parent="4jkdXABpjhATwR_0k8hN-62" source="4jkdXABpjhATwR_0k8hN-68" target="4jkdXABpjhATwR_0k8hN-69">
          <mxGeometry relative="1" as="geometry">
            <Array as="points" />
          </mxGeometry>
        </mxCell>
        <mxCell id="4jkdXABpjhATwR_0k8hN-83" value="Yes" style="curved=1;startArrow=none;endArrow=block;exitX=0.03;exitY=1;entryX=0.5;entryY=0;rounded=0;" edge="1" parent="4jkdXABpjhATwR_0k8hN-62" source="4jkdXABpjhATwR_0k8hN-69" target="4jkdXABpjhATwR_0k8hN-70">
          <mxGeometry relative="1" as="geometry">
            <Array as="points">
              <mxPoint x="120" y="1123" />
            </Array>
          </mxGeometry>
        </mxCell>
        <mxCell id="4jkdXABpjhATwR_0k8hN-84" value="" style="curved=1;startArrow=none;endArrow=block;exitX=0.5;exitY=1;entryX=0.5;entryY=0;rounded=0;" edge="1" parent="4jkdXABpjhATwR_0k8hN-62" source="4jkdXABpjhATwR_0k8hN-70" target="4jkdXABpjhATwR_0k8hN-71">
          <mxGeometry relative="1" as="geometry">
            <Array as="points" />
          </mxGeometry>
        </mxCell>
        <mxCell id="4jkdXABpjhATwR_0k8hN-85" value="" style="curved=1;startArrow=none;endArrow=block;exitX=0.5;exitY=1;entryX=0.5;entryY=0;rounded=0;" edge="1" parent="4jkdXABpjhATwR_0k8hN-62" source="4jkdXABpjhATwR_0k8hN-71" target="4jkdXABpjhATwR_0k8hN-72">
          <mxGeometry relative="1" as="geometry">
            <Array as="points" />
          </mxGeometry>
        </mxCell>
        <mxCell id="4jkdXABpjhATwR_0k8hN-86" value="No" style="curved=1;startArrow=none;endArrow=block;exitX=1.01;exitY=0.97;entryX=0.5;entryY=0;rounded=0;" edge="1" parent="4jkdXABpjhATwR_0k8hN-62" source="4jkdXABpjhATwR_0k8hN-69" target="4jkdXABpjhATwR_0k8hN-73">
          <mxGeometry relative="1" as="geometry">
            <Array as="points">
              <mxPoint x="355" y="1123" />
            </Array>
          </mxGeometry>
        </mxCell>
        <mxCell id="4jkdXABpjhATwR_0k8hN-87" value="" style="curved=1;startArrow=none;endArrow=block;exitX=0.5;exitY=1;entryX=0;entryY=0.15;rounded=0;" edge="1" parent="4jkdXABpjhATwR_0k8hN-62" source="4jkdXABpjhATwR_0k8hN-73" target="4jkdXABpjhATwR_0k8hN-74">
          <mxGeometry relative="1" as="geometry">
            <Array as="points">
              <mxPoint x="355" y="1263" />
            </Array>
          </mxGeometry>
        </mxCell>
        <mxCell id="4jkdXABpjhATwR_0k8hN-88" value="" style="curved=1;startArrow=none;endArrow=block;exitX=0.74;exitY=0;entryX=1;entryY=0.99;rounded=0;" edge="1" parent="4jkdXABpjhATwR_0k8hN-62" source="4jkdXABpjhATwR_0k8hN-74" target="4jkdXABpjhATwR_0k8hN-67">
          <mxGeometry relative="1" as="geometry">
            <Array as="points">
              <mxPoint x="651" y="1263" />
              <mxPoint x="651" y="760" />
            </Array>
          </mxGeometry>
        </mxCell>
        <mxCell id="4jkdXABpjhATwR_0k8hN-89" value="No" style="curved=1;startArrow=none;endArrow=block;exitX=0.23;exitY=1;entryX=0.5;entryY=0;rounded=0;" edge="1" parent="4jkdXABpjhATwR_0k8hN-62" source="4jkdXABpjhATwR_0k8hN-67" target="4jkdXABpjhATwR_0k8hN-75">
          <mxGeometry relative="1" as="geometry">
            <Array as="points">
              <mxPoint x="459" y="760" />
            </Array>
          </mxGeometry>
        </mxCell>
        <mxCell id="4jkdXABpjhATwR_0k8hN-90" value="" style="curved=1;startArrow=none;endArrow=block;exitX=0.5;exitY=1;entryX=0.37;entryY=0;rounded=0;" edge="1" parent="4jkdXABpjhATwR_0k8hN-62" source="4jkdXABpjhATwR_0k8hN-75" target="4jkdXABpjhATwR_0k8hN-76">
          <mxGeometry relative="1" as="geometry">
            <Array as="points">
              <mxPoint x="459" y="901" />
            </Array>
          </mxGeometry>
        </mxCell>
        <mxCell id="4jkdXABpjhATwR_0k8hN-91" value="" style="curved=1;startArrow=none;endArrow=block;exitX=0.63;exitY=0;entryX=0.77;entryY=1;rounded=0;" edge="1" parent="4jkdXABpjhATwR_0k8hN-62" source="4jkdXABpjhATwR_0k8hN-76" target="4jkdXABpjhATwR_0k8hN-67">
          <mxGeometry relative="1" as="geometry">
            <Array as="points">
              <mxPoint x="592" y="901" />
              <mxPoint x="592" y="760" />
            </Array>
          </mxGeometry>
        </mxCell>
        <mxCell id="4jkdXABpjhATwR_0k8hN-92" value="Start" style="whiteSpace=wrap;strokeWidth=2;" vertex="1" parent="1">
          <mxGeometry x="330" y="30" width="95" height="54" as="geometry" />
        </mxCell>
        <mxCell id="4jkdXABpjhATwR_0k8hN-93" value="Set filePath" style="whiteSpace=wrap;strokeWidth=2;" vertex="1" parent="1">
          <mxGeometry x="306" y="134" width="143" height="54" as="geometry" />
        </mxCell>
        <mxCell id="4jkdXABpjhATwR_0k8hN-94" value="Read questionDict" style="whiteSpace=wrap;strokeWidth=2;" vertex="1" parent="1">
          <mxGeometry x="283" y="238" width="189" height="54" as="geometry" />
        </mxCell>
        <mxCell id="4jkdXABpjhATwR_0k8hN-95" value="Init score/max_score" style="whiteSpace=wrap;strokeWidth=2;" vertex="1" parent="1">
          <mxGeometry x="272" y="342" width="211" height="54" as="geometry" />
        </mxCell>
        <mxCell id="4jkdXABpjhATwR_0k8hN-96" value="Clear screen" style="whiteSpace=wrap;strokeWidth=2;" vertex="1" parent="1">
          <mxGeometry x="303" y="446" width="149" height="54" as="geometry" />
        </mxCell>
        <mxCell id="4jkdXABpjhATwR_0k8hN-97" value="Select topic" style="rhombus;strokeWidth=2;whiteSpace=wrap;" vertex="1" parent="1">
          <mxGeometry x="243" y="550" width="139" height="139" as="geometry" />
        </mxCell>
        <mxCell id="4jkdXABpjhATwR_0k8hN-98" value="Show questions" style="rhombus;strokeWidth=2;whiteSpace=wrap;" vertex="1" parent="1">
          <mxGeometry x="473" y="1414" width="163" height="163" as="geometry" />
        </mxCell>
        <mxCell id="4jkdXABpjhATwR_0k8hN-99" value="Display results" style="rhombus;strokeWidth=2;whiteSpace=wrap;" vertex="1" parent="1">
          <mxGeometry x="796" y="3479" width="157" height="157" as="geometry" />
        </mxCell>
        <mxCell id="4jkdXABpjhATwR_0k8hN-100" value="Play again?" style="rhombus;strokeWidth=2;whiteSpace=wrap;" vertex="1" parent="1">
          <mxGeometry x="1019" y="5285" width="133" height="133" as="geometry" />
        </mxCell>
        <mxCell id="4jkdXABpjhATwR_0k8hN-101" value="End" style="whiteSpace=wrap;strokeWidth=2;" vertex="1" parent="1">
          <mxGeometry x="1042" y="5913" width="86" height="54" as="geometry" />
        </mxCell>
        <mxCell id="4jkdXABpjhATwR_0k8hN-102" value="" style="curved=1;startArrow=none;endArrow=block;exitX=0.51;exitY=1;entryX=0.5;entryY=0;rounded=0;" edge="1" parent="1" source="4jkdXABpjhATwR_0k8hN-92" target="4jkdXABpjhATwR_0k8hN-93">
          <mxGeometry relative="1" as="geometry">
            <Array as="points" />
          </mxGeometry>
        </mxCell>
        <mxCell id="4jkdXABpjhATwR_0k8hN-103" value="" style="curved=1;startArrow=none;endArrow=block;exitX=0.5;exitY=1;entryX=0.5;entryY=0;rounded=0;" edge="1" parent="1" source="4jkdXABpjhATwR_0k8hN-93" target="4jkdXABpjhATwR_0k8hN-94">
          <mxGeometry relative="1" as="geometry">
            <Array as="points" />
          </mxGeometry>
        </mxCell>
        <mxCell id="4jkdXABpjhATwR_0k8hN-104" value="" style="curved=1;startArrow=none;endArrow=block;exitX=0.5;exitY=1;entryX=0.5;entryY=0;rounded=0;" edge="1" parent="1" source="4jkdXABpjhATwR_0k8hN-94" target="4jkdXABpjhATwR_0k8hN-95">
          <mxGeometry relative="1" as="geometry">
            <Array as="points" />
          </mxGeometry>
        </mxCell>
        <mxCell id="4jkdXABpjhATwR_0k8hN-105" value="" style="curved=1;startArrow=none;endArrow=block;exitX=0.5;exitY=1;entryX=0.5;entryY=0;rounded=0;" edge="1" parent="1" source="4jkdXABpjhATwR_0k8hN-95" target="4jkdXABpjhATwR_0k8hN-96">
          <mxGeometry relative="1" as="geometry">
            <Array as="points" />
          </mxGeometry>
        </mxCell>
        <mxCell id="4jkdXABpjhATwR_0k8hN-106" value="" style="curved=1;startArrow=none;endArrow=block;exitX=0.28;exitY=1;entryX=0.5;entryY=0;rounded=0;" edge="1" parent="1" source="4jkdXABpjhATwR_0k8hN-96" target="4jkdXABpjhATwR_0k8hN-97">
          <mxGeometry relative="1" as="geometry">
            <Array as="points">
              <mxPoint x="313" y="525" />
            </Array>
          </mxGeometry>
        </mxCell>
        <mxCell id="4jkdXABpjhATwR_0k8hN-107" value="" style="curved=1;startArrow=none;endArrow=block;exitX=1;exitY=0.7;entryX=0.5;entryY=0;rounded=0;" edge="1" parent="1" source="4jkdXABpjhATwR_0k8hN-97" target="4jkdXABpjhATwR_0k8hN-98">
          <mxGeometry relative="1" as="geometry">
            <Array as="points">
              <mxPoint x="554" y="714" />
            </Array>
          </mxGeometry>
        </mxCell>
        <mxCell id="4jkdXABpjhATwR_0k8hN-108" value="" style="curved=1;startArrow=none;endArrow=block;exitX=0.7;exitY=1;entryX=0.5;entryY=0;rounded=0;" edge="1" parent="1" source="4jkdXABpjhATwR_0k8hN-98" target="4jkdXABpjhATwR_0k8hN-99">
          <mxGeometry relative="1" as="geometry">
            <Array as="points">
              <mxPoint x="875" y="2278" />
            </Array>
          </mxGeometry>
        </mxCell>
        <mxCell id="4jkdXABpjhATwR_0k8hN-109" value="" style="curved=1;startArrow=none;endArrow=block;exitX=0.56;exitY=1;entryX=0.44;entryY=0;rounded=0;" edge="1" parent="1" source="4jkdXABpjhATwR_0k8hN-99" target="4jkdXABpjhATwR_0k8hN-100">
          <mxGeometry relative="1" as="geometry">
            <Array as="points">
              <mxPoint x="1020" y="4837" />
            </Array>
          </mxGeometry>
        </mxCell>
        <mxCell id="4jkdXABpjhATwR_0k8hN-110" value="Yes" style="curved=1;startArrow=none;endArrow=block;exitX=0.51;exitY=0;entryX=1;entryY=0.6;rounded=0;" edge="1" parent="1" source="4jkdXABpjhATwR_0k8hN-100" target="4jkdXABpjhATwR_0k8hN-96">
          <mxGeometry relative="1" as="geometry">
            <Array as="points">
              <mxPoint x="1095" y="4837" />
              <mxPoint x="1095" y="525" />
            </Array>
          </mxGeometry>
        </mxCell>
        <mxCell id="4jkdXABpjhATwR_0k8hN-111" value="No" style="curved=1;startArrow=none;endArrow=block;exitX=0.5;exitY=1;entryX=0.5;entryY=0.01;rounded=0;" edge="1" parent="1" source="4jkdXABpjhATwR_0k8hN-100" target="4jkdXABpjhATwR_0k8hN-101">
          <mxGeometry relative="1" as="geometry">
            <Array as="points" />
          </mxGeometry>
        </mxCell>
        <mxCell id="4jkdXABpjhATwR_0k8hN-112" value="" style="curved=1;startArrow=none;endArrow=block;exitX=0;exitY=0.7;entryX=0.5;entryY=0;rounded=0;" edge="1" parent="1" source="4jkdXABpjhATwR_0k8hN-97" target="4jkdXABpjhATwR_0k8hN-62">
          <mxGeometry relative="1" as="geometry">
            <Array as="points">
              <mxPoint x="71" y="714" />
            </Array>
          </mxGeometry>
        </mxCell>
        <mxCell id="4jkdXABpjhATwR_0k8hN-113" value="" style="curved=1;startArrow=none;endArrow=block;exitX=0.29;exitY=1;entryX=0.5;entryY=0;rounded=0;" edge="1" parent="1" source="4jkdXABpjhATwR_0k8hN-98" target="4jkdXABpjhATwR_0k8hN-14">
          <mxGeometry relative="1" as="geometry">
            <Array as="points">
              <mxPoint x="234" y="2278" />
            </Array>
          </mxGeometry>
        </mxCell>
        <mxCell id="4jkdXABpjhATwR_0k8hN-114" value="" style="curved=1;startArrow=none;endArrow=block;exitX=0.47;exitY=1;entryX=0.5;entryY=0;rounded=0;" edge="1" parent="1" source="4jkdXABpjhATwR_0k8hN-99" target="4jkdXABpjhATwR_0k8hN-1">
          <mxGeometry relative="1" as="geometry">
            <Array as="points">
              <mxPoint x="795" y="4837" />
            </Array>
          </mxGeometry>
        </mxCell>
      </root>
    </mxGraphModel>
  </diagram>
</mxfile>
